<svg version="1.1" id="Layer_1" xmlns="http://www.w3.org/2000/svg" xmlns:xlink="http://www.w3.org/1999/xlink" x="0px" y="0px"
	 width="100%" viewBox="0 0 1024 704" enable-background="new 0 0 1024 704" xml:space="preserve">
<path fill="#000000" opacity="1.000000" stroke="none" 
	d="
M519.000000,1.000010 
	C590.687561,1.000000 662.375122,1.000000 734.383789,1.230365 
	C734.675354,7.314270 736.848145,12.699609 738.397034,18.199448 
	C738.906616,20.008896 740.837463,20.868788 742.504639,21.660480 
	C748.072144,24.304323 753.607483,26.997606 759.714905,28.293659 
	C764.984131,29.411858 770.041443,31.119036 773.744080,35.381813 
	C778.443787,40.792587 784.473999,42.256462 791.344116,41.609177 
	C797.644897,41.015545 803.965027,40.626701 810.276245,40.143597 
	C816.302185,39.682335 821.795105,41.255753 826.980042,44.286709 
	C838.737732,51.159878 843.281677,62.108322 844.918823,74.962288 
	C846.819031,89.882027 851.620422,103.803787 860.370300,116.195908 
	C862.403870,119.075935 864.594604,121.944206 868.001892,123.194939 
	C878.746582,127.139023 884.624695,135.395538 888.526306,145.591492 
	C894.494141,161.187073 897.517212,177.673737 903.073669,193.383133 
	C905.627441,200.603394 908.872375,207.582108 911.352844,214.824829 
	C917.194763,231.882019 920.869873,249.546463 924.793396,267.086731 
	C928.422607,283.311127 934.421692,298.595825 940.340210,313.988495 
	C945.827393,328.259521 949.210388,342.689453 947.219788,358.379547 
	C944.865662,376.934448 939.837769,394.955109 937.488525,413.484344 
	C936.009521,425.149872 930.958008,435.824280 926.926147,446.732697 
	C925.072815,451.747101 921.741760,456.023468 916.614258,458.515533 
	C915.303711,459.152496 914.164429,460.250061 913.118652,461.306427 
	C906.067627,468.428619 899.795227,476.155762 894.974915,484.992096 
	C892.410461,489.693298 889.228882,493.894958 885.627747,497.899384 
	C880.519531,503.579742 875.270935,509.410889 872.745911,516.740967 
	C870.417358,523.500427 867.059448,529.464478 862.557007,534.917664 
	C859.422913,538.713440 857.198730,542.938232 856.997253,548.023010 
	C856.740234,554.511047 856.393677,560.995422 856.124756,567.483093 
	C856.027954,569.818420 855.865967,572.261475 856.940369,574.375488 
	C861.368835,583.089294 861.809570,592.185913 860.312744,601.661804 
	C859.747681,605.239014 859.895508,609.008301 860.255554,612.636719 
	C861.177734,621.929199 865.634277,628.702881 874.371033,632.843201 
	C883.048279,636.955383 891.583252,635.859375 900.203064,633.388245 
	C915.097900,629.118225 929.565979,623.597351 944.025574,618.066711 
	C950.615234,615.546143 951.790649,613.099548 951.415771,605.849731 
	C950.973022,597.287354 951.900391,588.859863 956.749268,581.396729 
	C958.971741,577.976135 962.827759,575.467407 966.047119,577.741272 
	C973.093506,582.718201 979.053894,581.690613 986.583069,578.568176 
	C992.544495,576.096008 997.724182,573.735840 1001.163574,568.227600 
	C1002.405762,566.238342 1003.864075,564.419983 1005.747498,562.985474 
	C1008.172546,561.138367 1011.009766,560.205994 1013.685364,561.737366 
	C1017.428772,563.879822 1021.713013,565.052490 1025.000000,568.000000 
	C1025.000000,613.602539 1025.000000,659.205139 1025.000000,705.000000 
	C966.979248,705.000000 908.958252,705.000000 850.478699,704.702637 
	C848.733704,695.968079 843.838867,690.135620 837.080994,685.236023 
	C830.781494,680.668762 825.335999,675.116455 825.462891,666.466431 
	C825.663940,652.763672 819.600952,641.799744 810.645569,632.107483 
	C807.571228,628.780151 803.986816,625.833557 799.622253,624.522888 
	C789.580078,621.507019 779.841797,617.569031 769.534729,615.322693 
	C756.594177,612.502441 743.940430,612.312012 732.141663,618.890869 
	C725.412292,622.643066 718.347046,624.670593 710.903137,625.731018 
	C700.342712,627.235596 689.775818,628.736267 679.391968,631.169861 
	C671.069763,633.120422 663.526917,631.782349 659.099182,624.385437 
	C651.648926,611.939514 640.410217,607.020447 626.901245,604.306030 
	C599.625854,598.825623 575.201050,601.920044 556.215271,624.651672 
	C553.218872,628.239197 549.181152,630.204895 544.800415,631.491821 
	C537.692261,633.580139 530.455505,634.542480 523.060852,633.475647 
	C518.186340,632.772461 513.285156,632.987732 508.704437,634.511658 
	C496.229401,638.661865 483.552856,642.288391 471.677551,648.110291 
	C466.871979,650.466248 462.273895,653.137207 457.905304,656.198242 
	C453.430298,659.333679 451.247589,664.075745 452.848389,668.703186 
	C454.470612,673.392578 452.266998,675.136780 448.428772,676.361450 
	C439.179474,679.312622 429.607605,680.821899 420.068268,682.246094 
	C405.339844,684.444946 390.392517,685.341553 375.831543,681.821777 
	C359.700317,677.922485 343.474915,677.513245 327.156708,678.498596 
	C309.636719,679.556580 292.166473,678.864075 274.724274,677.700684 
	C268.385864,677.277954 262.007568,676.097168 255.966415,673.107300 
	C251.418396,670.856323 247.344162,668.450989 243.665085,664.931274 
	C238.801575,660.278320 232.085892,658.417847 226.549301,654.782593 
	C211.238495,644.729797 197.853149,632.069031 182.610352,621.897888 
	C181.927353,621.442200 181.362640,620.796021 180.784515,620.198242 
	C163.261887,602.077576 159.703018,578.919006 157.863556,555.331421 
	C157.141525,546.072876 160.347977,536.804626 159.081619,527.438599 
	C157.389725,514.925354 153.513489,502.981689 143.628494,494.769714 
	C133.506927,486.361206 128.129456,476.375916 127.844589,463.399017 
	C127.782547,460.572968 127.404938,457.752716 127.370461,454.927368 
	C127.212196,441.961487 124.866768,429.007965 126.957619,416.031555 
	C129.590454,399.691345 129.280579,383.145844 130.129303,366.703613 
	C130.697296,355.699585 130.893127,344.761963 133.446762,333.989990 
	C134.097794,331.243683 134.592743,328.429047 134.818375,325.618439 
	C136.063965,310.101624 143.255203,297.025696 151.834335,284.613037 
	C154.260574,281.102661 156.459305,277.736877 156.904633,273.437439 
	C157.134537,271.217926 157.678879,269.152374 159.829071,267.949951 
	C162.957260,266.200562 164.005280,263.031860 165.620834,260.093353 
	C171.600800,249.216385 172.127121,236.141129 180.656815,226.147202 
	C191.905685,212.967300 198.270554,195.974197 213.207718,185.493088 
	C219.475494,181.095139 225.464859,176.914581 233.219269,176.134201 
	C235.773056,175.877213 237.976120,174.973587 240.241302,173.805939 
	C250.565140,168.484283 258.950348,160.846375 265.987793,151.811478 
	C268.398621,148.716339 271.954254,146.827667 273.964844,143.770447 
	C278.777222,136.453003 286.126404,131.431625 290.885284,124.126053 
	C292.269348,122.001266 294.738708,121.069077 296.924652,119.827232 
	C302.433990,116.697411 308.912872,116.994484 314.589294,114.597389 
	C326.113861,109.730675 337.939056,105.715912 349.849609,101.935471 
	C353.063232,100.915459 355.827576,99.221085 358.614655,97.308075 
	C374.785553,86.208496 389.824310,73.277199 408.516479,66.201584 
	C412.532715,64.681305 414.986176,61.701874 415.794128,57.372196 
	C416.791809,52.025639 420.150879,48.315556 424.031555,44.655220 
	C431.445679,37.661976 440.455261,34.883194 450.102417,33.111168 
	C456.469269,31.941675 463.175781,32.450184 469.194061,29.590080 
	C474.741852,26.953562 480.575653,26.102797 486.640686,25.842136 
	C495.163055,25.475863 503.475281,23.645050 511.704956,21.479383 
	C514.643005,20.706236 517.605957,19.044870 517.048950,15.841413 
	C516.112610,10.456416 517.539368,6.218563 521.520996,2.596150 
	C520.400269,1.886586 519.700134,1.443303 519.000000,1.000010 
M596.890991,517.319702 
	C614.211426,514.029053 631.997253,513.205566 648.900635,507.722473 
	C689.201355,494.649811 710.683472,465.405762 718.343933,425.136200 
	C720.566467,413.452393 719.911499,401.240753 720.963745,389.305298 
	C721.402039,384.333832 719.648743,380.982056 716.401428,377.354309 
	C709.373474,369.502960 700.345886,363.288177 696.432434,352.753296 
	C695.062012,349.064270 691.492981,348.596008 688.020569,350.755524 
	C682.846069,353.973633 679.290771,358.915283 674.933105,362.997345 
	C668.317932,369.194122 662.207458,376.661987 652.555908,378.067688 
	C635.616150,380.534943 618.797974,383.652649 601.955933,386.658844 
	C600.262390,386.961121 598.620117,386.688477 597.058533,386.046417 
	C593.219788,384.467987 589.919983,385.348694 586.928162,388.058472 
	C581.126953,393.312927 575.302368,398.541656 569.475098,403.767303 
	C562.396118,410.115387 554.444336,414.749878 544.924866,416.377136 
	C539.508423,417.302979 534.043335,418.079651 528.727661,419.426605 
	C521.337463,421.299164 512.941772,421.747620 507.274261,426.990601 
	C499.502869,434.179871 491.451996,439.523132 480.622803,440.086578 
	C477.515808,440.248230 476.918121,442.321625 479.190582,444.456512 
	C483.072388,448.103271 487.209290,451.476868 491.154816,455.057983 
	C493.309631,457.013733 496.091766,458.502869 496.846130,461.845306 
	C493.643005,465.010437 490.734528,464.991638 487.295685,462.013336 
	C478.230499,454.162262 468.891602,446.627350 459.819946,438.783508 
	C455.870117,435.368256 452.094879,433.586151 446.791992,436.008820 
	C439.378021,439.396057 431.562897,441.952393 424.876038,446.778931 
	C420.587097,449.874756 415.835266,451.281372 410.682526,452.441986 
	C402.481293,454.289215 394.301575,455.061920 385.950958,455.069336 
	C381.599396,455.073181 377.487152,456.571045 373.287415,457.665741 
	C364.657928,459.915161 359.384613,467.471313 351.106262,470.651001 
	C344.546173,473.170776 338.573914,474.588104 331.843933,473.281891 
	C329.391235,472.805817 326.959839,472.220978 324.510895,471.724396 
	C317.666351,470.336578 313.843048,471.985107 310.380310,477.888397 
	C309.397186,479.564453 307.920441,480.561646 306.253906,481.368988 
	C302.510284,483.182556 298.799988,485.072662 295.000763,486.762115 
	C288.927185,489.462952 287.921539,493.902161 292.948456,498.086792 
	C314.198761,515.776611 335.599792,533.285217 356.873566,550.947021 
	C360.130035,553.650574 363.571991,554.206360 367.579437,553.516968 
	C379.392059,551.485229 391.217773,549.524536 403.056610,547.651245 
	C437.096649,542.264893 471.142212,536.912964 505.192169,531.589783 
	C535.466003,526.856873 565.748718,522.180298 596.890991,517.319702 
M597.324890,326.845795 
	C602.006653,317.272064 604.029114,307.083008 604.771301,296.506866 
	C606.238708,275.596039 608.018066,254.707230 609.509888,233.797989 
	C610.042114,226.338486 610.521057,218.850464 609.067200,211.395798 
	C605.847595,194.886734 595.151794,188.738663 579.383179,194.716492 
	C570.985779,197.899933 562.872925,201.836777 554.464783,204.988602 
	C526.954163,215.301147 514.032410,236.293564 511.289062,264.352173 
	C508.925903,288.522278 507.279572,312.763184 505.399200,336.979248 
	C504.841522,344.161072 505.294586,351.314667 507.480713,358.227631 
	C509.572754,364.843079 513.692810,369.623688 520.722595,371.190643 
	C526.428162,372.462463 532.028320,371.557983 537.348206,369.365417 
	C546.734131,365.497070 556.036377,361.425720 565.374023,357.440277 
	C579.606262,351.365723 589.911011,341.142548 597.324890,326.845795 
M351.377930,370.177124 
	C351.645050,371.819611 351.866577,373.471100 352.187622,375.102966 
	C353.211639,380.307037 351.491364,383.568054 346.154572,385.269714 
	C341.099487,386.881531 336.311279,389.319305 331.369049,391.302429 
	C329.754608,391.950226 328.121796,393.161255 326.288208,392.008759 
	C325.374908,390.389984 326.191711,388.997467 326.639404,387.615631 
	C329.047180,380.183990 331.488373,372.763092 333.948639,365.348663 
	C334.422668,363.920105 335.188446,362.480286 333.854187,361.176819 
	C332.652832,360.003235 331.293243,360.772430 330.118896,361.262756 
	C323.362305,364.083923 316.636078,366.977936 309.904053,369.857819 
	C307.748749,370.779846 306.746887,372.536407 305.970978,374.702332 
	C294.580231,406.499817 283.069305,438.254333 271.737061,470.072540 
	C270.391388,473.850861 267.996521,477.411346 268.034363,481.647491 
	C270.201752,482.197113 271.703644,481.416473 273.223053,480.775848 
	C280.278259,477.801178 287.280487,474.692963 294.401276,471.885162 
	C297.648376,470.604858 299.488586,468.512604 300.535492,465.248138 
	C303.533661,455.899078 306.711060,446.607544 309.818268,437.293457 
	C310.609711,434.921112 311.296509,432.584625 313.995331,431.456604 
	C326.740967,426.129333 339.453674,420.722992 352.162476,415.307983 
	C355.401062,413.928070 357.168030,414.579468 357.510345,418.395050 
	C358.208466,426.176514 359.123627,433.938263 359.909790,441.712128 
	C360.217682,444.756989 361.472229,445.900360 364.524658,444.501343 
	C372.088959,441.034241 379.691376,437.650024 387.289795,434.257843 
	C389.736694,433.165466 390.547729,431.615265 390.182983,428.744476 
	C386.388031,398.876678 381.282715,369.178589 378.561523,339.170898 
	C378.145111,334.578735 376.153656,333.536682 371.732544,335.404236 
	C365.907074,337.864990 360.212524,340.654999 354.312408,342.913391 
	C349.867981,344.614563 348.768433,347.530609 349.394012,351.912903 
	C350.215942,357.670685 350.691162,363.477966 351.377930,370.177124 
M415.715790,311.097229 
	C415.273376,315.899109 414.681152,320.692627 414.412903,325.504211 
	C412.680420,356.582001 409.241730,387.518707 406.786041,418.536316 
	C406.387665,423.567688 407.206970,424.269379 412.047882,422.344116 
	C418.390564,419.821594 424.694458,417.199066 430.983978,414.545929 
	C447.398926,407.621521 463.817200,400.704102 480.181030,393.660431 
	C482.812439,392.527771 486.367615,391.979340 486.869781,388.352570 
	C488.512421,376.489258 489.237366,364.555878 488.979584,352.574097 
	C488.974365,352.332275 488.564880,352.099152 487.992767,351.484955 
	C472.317444,357.905151 456.855469,365.389526 440.323029,371.285889 
	C439.331696,367.251160 439.839417,364.130524 440.121124,361.014862 
	C440.675385,354.884766 441.283936,348.758698 441.757141,342.622284 
	C443.011139,326.359558 444.243530,310.094971 445.409821,293.825775 
	C446.242737,282.207031 446.988922,270.581635 447.700592,258.954742 
	C447.921478,255.346634 446.454285,253.246506 442.606628,254.877869 
	C429.730896,260.336914 416.898895,265.900513 404.092285,271.520081 
	C401.231628,272.775299 400.604370,275.000793 402.528564,277.599670 
	C404.410614,280.141571 406.103241,282.940125 408.421997,285.020966 
	C416.148010,291.954163 418.258087,300.360443 415.715790,311.097229 
M674.101929,272.457581 
	C679.261292,281.012665 684.567322,289.484222 689.506470,298.164612 
	C691.436096,301.555847 693.472290,301.957275 696.808105,300.479736 
	C703.656494,297.446442 710.607727,294.641113 717.554993,291.837219 
	C720.481689,290.655975 723.443298,289.448059 726.501587,288.734802 
	C730.249268,287.860748 734.803223,290.948334 736.079407,295.086182 
	C737.355103,299.222504 733.390320,299.417786 731.270081,300.806000 
	C728.096008,302.884125 724.491516,304.158051 721.788635,307.129913 
	C718.766541,310.452576 718.386292,313.162781 721.713745,316.464844 
	C729.864380,324.553162 737.769653,332.889648 745.958252,340.938354 
	C752.726013,347.590393 759.729309,354.004486 766.688049,360.459473 
	C769.195801,362.785614 772.093445,364.737701 775.693848,363.575012 
	C784.877930,360.609161 794.138367,357.738220 802.778687,353.405334 
	C809.079773,350.245514 809.459229,345.566803 804.477600,340.681488 
	C781.293213,317.945160 758.139038,295.177979 734.934509,272.462250 
	C732.442505,270.022736 729.793701,267.715820 727.033020,265.586731 
	C724.670959,263.765045 721.433838,263.346619 719.909119,265.957367 
	C716.685059,271.477844 714.705139,268.423981 712.383850,265.497803 
	C703.577454,254.397064 695.849548,242.524658 687.662109,230.980743 
	C684.517273,226.546722 682.983459,226.576538 680.091370,231.197495 
	C677.707642,235.006241 675.611389,238.994141 673.255859,242.821472 
	C664.272156,257.418396 664.252258,257.406128 674.101929,272.457581 
M625.225830,329.560638 
	C626.018005,329.661255 626.946167,330.082916 627.581604,329.813660 
	C635.240051,326.568054 642.864502,323.241241 650.476379,319.887085 
	C652.964111,318.790833 653.445312,316.539825 653.627014,314.098633 
	C654.256897,305.637085 654.922363,297.178009 655.614319,288.721283 
	C658.585571,252.409470 661.579712,216.099503 664.542114,179.786957 
	C664.974792,174.483383 665.454773,169.173630 665.580811,163.858856 
	C665.656982,160.648941 664.262085,158.644028 660.544067,160.263748 
	C648.031006,165.715073 635.472107,171.063370 623.011047,176.630890 
	C618.571411,178.614502 618.353516,180.322235 621.519287,184.261200 
	C624.960938,188.543533 628.467529,192.774857 632.005249,196.978348 
	C633.917053,199.249985 634.804016,201.642487 634.543274,204.744873 
	C631.421692,241.883240 628.355713,279.026611 625.455994,316.182800 
	C625.123474,320.444153 623.518860,324.682800 625.225830,329.560638 
M372.364655,294.108459 
	C372.214661,293.122284 372.042450,292.138916 371.918335,291.149506 
	C371.202179,285.440826 370.361115,285.001617 364.938965,287.336609 
	C343.563538,296.541748 322.182404,305.733704 300.796112,314.913605 
	C295.965851,316.986938 295.510712,318.057220 298.307190,322.174347 
	C303.259552,329.465363 308.354340,336.659576 313.313904,343.945770 
	C314.751526,346.057800 316.342438,346.745911 318.787292,345.671722 
	C336.290833,337.980927 353.808960,330.323029 371.346375,322.709778 
	C375.011932,321.118500 376.030975,318.583496 375.349152,314.707581 
	C374.198151,308.164368 373.439606,301.552155 372.364655,294.108459 
M945.609070,653.146484 
	C944.904724,664.305359 951.734558,672.524170 962.778503,672.546204 
	C969.772644,672.560181 976.736633,675.868958 983.886475,672.662598 
	C980.592285,675.216553 977.161743,677.134216 973.737122,679.062622 
	C970.735962,680.752563 967.680237,682.739990 968.556946,686.690735 
	C969.456177,690.743103 973.101746,691.671082 976.717590,692.007629 
	C983.844543,692.670959 990.316650,690.345398 996.082275,686.577881 
	C1003.005676,682.053894 1003.669800,669.669250 997.247253,666.603516 
	C993.399902,664.766846 992.405640,662.639832 992.645020,658.526001 
	C993.376404,645.953979 986.009338,638.463501 973.432556,638.373596 
	C970.436401,638.352234 967.439941,638.350952 964.443726,638.362183 
	C954.517456,638.399536 948.762817,642.728333 945.609070,653.146484 
M730.761169,136.520569 
	C731.245239,134.996475 732.421631,133.556870 731.416199,131.896530 
	C730.560181,131.308853 729.754639,131.434113 728.974854,131.778839 
	C720.155518,135.677780 711.342468,139.591019 702.523193,143.490128 
	C700.894104,144.210342 699.937927,145.547150 699.204834,147.067596 
	C691.912659,162.192642 684.659241,177.336472 677.324402,192.440781 
	C676.211243,194.732941 676.500549,196.470413 678.312988,198.232864 
	C681.770264,201.594803 685.125916,205.061951 688.496155,208.512405 
	C692.078430,212.179977 693.286133,212.057861 695.642517,207.332077 
	C707.293274,183.966965 718.889038,160.574387 730.761169,136.520569 
z"/>
<path fill="#000000" opacity="1.000000" stroke="none" 
	d="
M544.227905,329.717773 
	C536.132935,331.062317 534.301331,329.502960 534.864624,322.597961 
	C536.527710,302.210754 538.364197,281.832031 539.585754,261.417267 
	C540.080200,253.154587 543.233582,247.539322 550.866272,244.309189 
	C557.606323,241.456787 564.169434,238.179611 570.945251,235.420395 
	C577.539429,232.735138 581.014587,235.316010 580.416565,242.395569 
	C578.736206,262.288116 576.947205,282.171692 576.060425,302.120758 
	C575.661133,311.102295 571.596924,317.482971 563.338013,321.339264 
	C557.157593,324.225067 551.165710,327.513306 544.227905,329.717773 
z"/>
<path fill="#000000" opacity="1.000000" stroke="none" 
	d="
M960.762024,653.343323 
	C962.217590,649.786682 965.058044,650.494202 967.551758,651.031006 
	C970.170044,651.594666 970.995789,653.804016 971.235291,656.311279 
	C971.865845,662.912476 970.920471,664.076843 964.830505,664.247559 
	C961.975525,664.327698 959.813904,663.408142 959.454041,660.368774 
	C959.120056,657.547180 960.883423,656.147400 963.514221,655.718384 
	C964.306030,655.589294 965.109558,655.532043 966.416809,655.384338 
	C964.615295,653.344543 962.135010,655.411133 960.762024,653.343323 
z"/>
<path fill="#000000" opacity="1.000000" stroke="none" 
	d="
M973.684814,656.226807 
	C973.903381,654.234131 973.359375,652.325867 976.286499,651.472046 
	C977.968323,655.627625 977.859619,659.580566 976.218323,664.080566 
	C972.535950,661.997375 974.120483,659.030640 973.684814,656.226807 
z"/>
</svg>